<svg id="Layer_1" data-name="Layer 1" xmlns="http://www.w3.org/2000/svg" viewBox="0 0 84 84"><defs><style>.cls-1{fill:#1d1d1b;}.cls-2{fill:#fff;}</style></defs><title>RM logo round</title><path class="cls-1" d="M84,42A42,42,0,1,1,42,0,42,42,0,0,1,84,42"/><path class="cls-2" d="M24,32.19v3.75h.08a6.9,6.9,0,0,1,1.05-1.74,6.77,6.77,0,0,1,1.52-1.36A7.25,7.25,0,0,1,28.53,32a6.47,6.47,0,0,1,2-.31,4.26,4.26,0,0,1,1.21.19V37c-.26-.05-.57-.1-.93-.14a9.74,9.74,0,0,0-1.06-.05,6,6,0,0,0-2.57.5,4.55,4.55,0,0,0-1.7,1.38,5.54,5.54,0,0,0-.91,2,10.74,10.74,0,0,0-.28,2.54v9.08H18.78V32.19Z"/><path class="cls-2" d="M39.64,32.19v2.73h.08a7.92,7.92,0,0,1,2.63-2.41,7.18,7.18,0,0,1,3.53-.86,8,8,0,0,1,3.49.74A4.9,4.9,0,0,1,51.77,35a8.65,8.65,0,0,1,2.43-2.34,6.55,6.55,0,0,1,3.65-1,10.7,10.7,0,0,1,3,.39,6,6,0,0,1,2.34,1.24,5.78,5.78,0,0,1,1.52,2.25,8.93,8.93,0,0,1,.55,3.33V52.35H59.68V40.93c0-.68,0-1.32-.07-1.91a4.26,4.26,0,0,0-.43-1.56,2.56,2.56,0,0,0-1-1.05,3.71,3.71,0,0,0-1.85-.4,3.62,3.62,0,0,0-1.89.45,3.2,3.2,0,0,0-1.13,1.18,4.62,4.62,0,0,0-.55,1.63,12.69,12.69,0,0,0-.13,1.85V52.35H47.05V41c0-.59,0-1.18,0-1.77a5,5,0,0,0-.33-1.62,2.47,2.47,0,0,0-1-1.19,3.72,3.72,0,0,0-2-.45,4,4,0,0,0-1,.18,3.48,3.48,0,0,0-1.24.66,3.93,3.93,0,0,0-1,1.41A5.77,5.77,0,0,0,40,40.65v11.7H34.42V32.19Z"/></svg>